<?xml version="1.0" encoding="utf-8"?>
<COLLADA xmlns="http://www.collada.org/2005/11/COLLADASchema" version="1.4.1">
	<asset>
		<contributor>
			<author>Mecabricks User</author>
			<authoring_tool>Mecabricks 6.0</authoring_tool>
		</contributor>
		<created>2026-09-02 T 16:44:04</created>
		<modified>2026-09-02 T 16:44:04</modified>
		<unit name="millimeter" meter="0.001"/>
		<up_axis>Y_UP</up_axis>
	</asset>
	<library_effects>
		<effect id="MB|5-effect">
			<profile_COMMON>
				<technique sid="common">
					<phong>
						<diffuse>
							<color sid="diffuse">0.6653872982754769 0.5028864580233624 0.20155625378383743 1</color>
						</diffuse>
						<index_of_refraction>
							<float sid="index_of_refraction">0</float>
						</index_of_refraction>
					</phong>
				</technique>
			</profile_COMMON>
		</effect>
	</library_effects>
	<library_materials>
		<material id="MB|5-material" name="MB|5">
			<instance_effect url="#MB|5-effect"/>
		</material>
	</library_materials>
	<library_geometries>
		<geometry id="5B10C9C5-1A6F-4332-8979-F85EFC60969C-mesh" name="5B10C9C5-1A6F-4332-8979-F85EFC60969C">
			<mesh>
				<source id="5B10C9C5-1A6F-4332-8979-F85EFC60969C-mesh-positions">
					<float_array id="5B10C9C5-1A6F-4332-8979-F85EFC60969C-mesh-positions-array" count="2016">20 47.98 -2.388 19.082 47.98 -2.206 18.304 47.98 -1.689 17.785 47.98 -0.914 17.602 47.98 0 17.785 47.98 0.914 18.304 47.98 1.689 19.082 47.98 2.206 20 47.98 2.388 20.918 47.98 2.206 21.696 47.98 1.689 22.215 47.98 0.914 22.398 47.98 0 22.215 47.98 -0.914 21.696 47.98 -1.689 20.918 47.98 -2.206 20 49.78 -2.388 19.082 49.78 -2.206 18.304 49.78 -1.689 17.785 49.78 -0.914 17.785 49.78 0.914 18.304 49.78 1.689 19.082 49.78 2.206 20.918 49.78 2.206 21.696 49.78 -1.689 20.918 49.78 -2.206 20 47.98 -1.592 19.388 47.98 -1.471 18.87 47.98 -1.126 18.523 47.98 -0.609 18.401 47.98 0 18.523 47.98 0.609 18.87 47.98 1.126 19.388 47.98 1.471 20 47.98 1.592 20.612 47.98 1.471 21.13 47.98 1.126 21.477 47.98 0.609 21.599 47.98 0 21.477 47.98 -0.609 21.13 47.98 -1.126 20.612 47.98 -1.471 20.612 49.78 1.471 21.13 49.78 1.126 12 47.98 -2.4 11.082 47.98 -2.218 10.304 47.98 -1.701 9.785 47.98 -0.926 9.602 47.98 -0.012 9.785 47.98 0.902 10.304 47.98 1.677 11.082 47.98 2.194 12 47.98 2.376 12.918 47.98 2.194 13.696 47.98 1.677 14.215 47.98 0.902 14.398 47.98 -0.012 14.215 47.98 -0.926 13.696 47.98 -1.701 12.918 47.98 -2.218 11.082 49.78 -2.218 9.785 49.78 -0.926 9.602 49.78 -0.012 9.785 49.78 0.902 10.304 49.78 1.677 13.696 49.78 1.677 14.215 49.78 -0.926 12 47.98 -1.604 11.388 47.98 -1.483 10.87 47.98 -1.138 10.523 47.98 -0.621 10.401 47.98 -0.012 10.523 47.98 0.597 10.87 47.98 1.114 11.388 47.98 1.459 12 47.98 1.58 12.612 47.98 1.459 13.13 47.98 1.114 13.477 47.98 0.597 13.599 47.98 -0.012 13.477 47.98 -0.621 13.13 47.98 -1.138 12.612 47.98 -1.483 11.388 49.78 -1.483 10.401 49.78 -0.012 10.523 49.78 0.597 11.388 49.78 1.459 12.612 49.78 1.459 13.13 49.78 1.114 13.477 49.78 0.597 13.477 49.78 -0.621 13.13 49.78 -1.138 12.612 49.78 -1.483 4 47.98 -2.388 3.082 47.98 -2.206 2.304 47.98 -1.689 1.785 47.98 -0.914 1.602 47.98 0 1.785 47.98 0.914 2.304 47.98 1.689 3.082 47.98 2.206 4 47.98 2.388 4.918 47.98 2.206 5.696 47.98 1.689 6.215 47.98 0.914 6.398 47.98 0 6.215 47.98 -0.914 5.696 47.98 -1.689 4.918 47.98 -2.206 4 49.78 -2.388 3.082 49.78 -2.206 2.304 49.78 -1.689 1.785 49.78 0.914 2.304 49.78 1.689 4 49.78 2.388 6.215 49.78 0.914 6.398 49.78 0 6.215 49.78 -0.914 4.918 49.78 -2.206 4 47.98 -1.592 3.388 47.98 -1.471 2.87 47.98 -1.126 2.523 47.98 -0.609 2.401 47.98 0 2.523 47.98 0.609 2.87 47.98 1.126 3.388 47.98 1.471 4 47.98 1.592 4.612 47.98 1.471 5.13 47.98 1.126 5.477 47.98 0.609 5.599 47.98 0 5.477 47.98 -0.609 5.13 47.98 -1.126 4.612 47.98 -1.471 3.388 49.78 -1.471 2.523 49.78 0.609 2.87 49.78 1.126 4 49.78 1.592 5.13 49.78 1.126 5.477 49.78 0.609 5.477 49.78 -0.609 5.13 49.78 -1.126 4.612 49.78 -1.471 -4 47.98 -2.388 -4.918 47.98 -2.206 -5.696 47.98 -1.689 -6.215 47.98 -0.914 -6.398 47.98 0 -6.215 47.98 0.914 -5.696 47.98 1.689 -4.918 47.98 2.206 -4 47.98 2.388 -3.082 47.98 2.206 -2.304 47.98 1.689 -1.785 47.98 0.914 -1.602 47.98 0 -1.785 47.98 -0.914 -2.304 47.98 -1.689 -3.082 47.98 -2.206 -6.215 49.78 -0.914 -4.918 49.78 2.206 -3.082 49.78 2.206 -1.785 49.78 0.914 -1.602 49.78 0 -2.304 49.78 -1.689 -3.082 49.78 -2.206 -4 47.98 -1.592 -4.612 47.98 -1.471 -5.13 47.98 -1.126 -5.477 47.98 -0.609 -5.599 47.98 0 -5.477 47.98 0.609 -5.13 47.98 1.126 -4.612 47.98 1.471 -4 47.98 1.592 -3.388 47.98 1.471 -2.87 47.98 1.126 -2.523 47.98 0.609 -2.401 47.98 0 -2.523 47.98 -0.609 -2.87 47.98 -1.126 -3.388 47.98 -1.471 -5.13 49.78 -1.126 -3.388 49.78 1.471 -2.523 49.78 -0.609 -2.87 49.78 -1.126 -12 47.98 -2.388 -12.918 47.98 -2.206 -13.696 47.98 -1.689 -14.215 47.98 -0.914 -14.398 47.98 0 -14.215 47.98 0.914 -13.696 47.98 1.689 -12.918 47.98 2.206 -12 47.98 2.388 -11.082 47.98 2.206 -10.304 47.98 1.689 -9.785 47.98 0.914 -9.602 47.98 0 -9.785 47.98 -0.914 -10.304 47.98 -1.689 -11.082 47.98 -2.206 -12 49.78 -2.388 -12.918 49.78 -2.206 -12 49.78 2.388 -11.082 49.78 2.206 -9.602 49.78 0 -9.785 49.78 -0.914 -10.304 49.78 -1.689 -11.082 49.78 -2.206 -12 47.98 -1.592 -12.612 47.98 -1.471 -13.13 47.98 -1.126 -13.477 47.98 -0.609 -13.599 47.98 0 -13.477 47.98 0.609 -13.13 47.98 1.126 -12.612 47.98 1.471 -12 47.98 1.592 -11.388 47.98 1.471 -10.87 47.98 1.126 -10.523 47.98 0.609 -10.401 47.98 0 -10.523 47.98 -0.609 -10.87 47.98 -1.126 -11.388 47.98 -1.471 -12.612 49.78 -1.471 -13.13 49.78 -1.126 -13.477 49.78 -0.609 -13.477 49.78 0.609 -12.612 49.78 1.471 -11.388 49.78 1.471 -10.523 49.78 -0.609 -20 47.98 -2.388 -20.918 47.98 -2.206 -21.696 47.98 -1.689 -22.215 47.98 -0.914 -22.398 47.98 0 -22.215 47.98 0.914 -21.696 47.98 1.689 -20.918 47.98 2.206 -20 47.98 2.388 -19.082 47.98 2.206 -18.304 47.98 1.689 -17.785 47.98 0.914 -17.602 47.98 0 -17.785 47.98 -0.914 -18.304 47.98 -1.689 -19.082 47.98 -2.206 -20.918 49.78 -2.206 -22.215 49.78 -0.914 -22.398 49.78 0 -22.215 49.78 0.914 -21.696 49.78 1.689 -19.082 49.78 2.206 -17.602 49.78 0 -19.082 49.78 -2.206 -20 47.98 -1.592 -20.612 47.98 -1.471 -21.13 47.98 -1.126 -21.477 47.98 -0.609 -21.599 47.98 0 -21.477 47.98 0.609 -21.13 47.98 1.126 -20.612 47.98 1.471 -20 47.98 1.592 -19.388 47.98 1.471 -18.87 47.98 1.126 -18.523 47.98 0.609 -18.401 47.98 0 -18.523 47.98 -0.609 -18.87 47.98 -1.126 -19.388 47.98 -1.471 -20 49.78 -1.592 -20.612 49.78 -1.471 -21.13 49.78 -1.126 -21.13 49.78 1.126 -19.388 49.78 1.471 -18.87 49.78 1.126 -18.523 49.78 0.609 -18.401 49.78 0 -18.523 49.78 -0.609 -19.388 49.78 -1.471 -8.4 0.02 2.376 -8.4 0.02 -2.4 -8.4 46.8 2.376 -9.6 46.8 -2.4 -8.4 46.8 -2.4 9.6 0.02 2.376 8.4 0.02 -2.4 9.6 0.02 -2.4 8.4 46.8 -2.4 9.6 46.8 -2.4 23.96 0.02 3.96 22.381 46.8 -2.4 17.602 49.78 0 20 49.78 2.388 21.696 49.78 1.689 22.215 49.78 0.914 22.398 49.78 0 22.215 49.78 -0.914 19.388 49.78 -1.471 20 49.78 -1.592 18.87 49.78 -1.126 18.523 49.78 -0.609 18.401 49.78 0 18.523 49.78 0.609 18.87 49.78 1.126 19.388 49.78 1.471 20 49.78 1.592 21.477 49.78 0.609 21.599 49.78 0 21.477 49.78 -0.609 21.13 49.78 -1.126 20.612 49.78 -1.471 12 49.78 -2.4 10.304 49.78 -1.701 11.082 49.78 2.194 12 49.78 2.376 12.918 49.78 2.194 14.215 49.78 0.902 14.398 49.78 -0.012 13.696 49.78 -1.701 12.918 49.78 -2.218 12 49.78 -1.604 10.87 49.78 -1.138 10.523 49.78 -0.621 10.87 49.78 1.114 12 49.78 1.58 13.599 49.78 -0.012 1.785 49.78 -0.914 1.602 49.78 0 3.082 49.78 2.206 4.918 49.78 2.206 5.696 49.78 1.689 5.696 49.78 -1.689 4 49.78 -1.592 2.87 49.78 -1.126 2.523 49.78 -0.609 2.401 49.78 0 3.388 49.78 1.471 4.612 49.78 1.471 5.599 49.78 0 -4.918 49.78 -2.206 -4 49.78 -2.388 -5.696 49.78 -1.689 -6.398 49.78 0 -6.215 49.78 0.914 -5.696 49.78 1.689 -4 49.78 2.388 -2.304 49.78 1.689 -1.785 49.78 -0.914 -4.612 49.78 -1.471 -4 49.78 -1.592 -5.477 49.78 -0.609 -5.599 49.78 0 -5.477 49.78 0.609 -5.13 49.78 1.126 -4.612 49.78 1.471 -4 49.78 1.592 -2.87 49.78 1.126 -2.523 49.78 0.609 -2.401 49.78 0 -3.388 49.78 -1.471 -13.696 49.78 -1.689 -14.215 49.78 -0.914 -14.398 49.78 0 -14.215 49.78 0.914 -13.696 49.78 1.689 -12.918 49.78 2.206 -10.304 49.78 1.689 -9.785 49.78 0.914 -12 49.78 -1.592 -13.599 49.78 0 -13.13 49.78 1.126 -12 49.78 1.592 -10.87 49.78 1.126 -10.523 49.78 0.609 -10.401 49.78 0 -10.87 49.78 -1.126 -11.388 49.78 -1.471 -20 49.78 -2.388 -21.696 49.78 -1.689 -20.918 49.78 2.206 -20 49.78 2.388 -18.304 49.78 1.689 -17.785 49.78 0.914 -17.785 49.78 -0.914 -18.304 49.78 -1.689 -21.477 49.78 -0.609 -21.599 49.78 0 -21.477 49.78 0.609 -20.612 49.78 1.471 -20 49.78 1.592 -18.87 49.78 -1.126 -9.6 0.02 -2.4 -9.6 0.02 2.376 -9.6 46.8 2.376 8.4 0.02 2.376 8.4 46.8 2.376 9.6 46.8 2.376 -22.381 0.02 -2.4 22.381 0.02 -2.4 23.96 0.02 -3.96 -23.96 0.02 -3.96 22.381 0.02 2.376 -22.381 0.02 2.376 -23.96 0.02 3.96 -22.381 46.8 -2.4 22.381 46.8 2.376 -22.381 46.8 2.376 23.96 47.98 -3.96 -23.96 47.98 -3.96 -23.96 47.98 3.96 23.96 47.98 3.96 22.215 49.78 0.914 21.696 49.78 1.689 22.398 49.78 0 22.215 49.78 -0.914 19.388 49.78 -1.471 20 49.78 -1.592 18.87 49.78 -1.126 18.523 49.78 -0.609 18.401 49.78 0 18.523 49.78 0.609 18.87 49.78 1.126 19.388 49.78 1.471 20 49.78 1.592 21.599 49.78 0 21.477 49.78 0.609 21.477 49.78 -0.609 21.13 49.78 -1.126 20.612 49.78 -1.471 12 49.78 2.376 11.082 49.78 2.194 12.918 49.78 2.194 14.398 49.78 -0.012 14.215 49.78 0.902 12.918 49.78 -2.218 13.696 49.78 -1.701 12 49.78 -2.4 10.523 49.78 -0.621 10.87 49.78 -1.138 1.602 49.78 0 1.785 49.78 -0.914 5.696 49.78 1.689 4.918 49.78 2.206 2.523 49.78 -0.609 2.87 49.78 -1.126 2.401 49.78 0 -4.918 49.78 -2.206 -4 49.78 -2.388 -5.696 49.78 -1.689 -6.215 49.78 0.914 -6.398 49.78 0 -5.696 49.78 1.689 -4.612 49.78 -1.471 -4 49.78 -1.592 -5.599 49.78 0 -5.477 49.78 -0.609 -5.477 49.78 0.609 -5.13 49.78 1.126 -4.612 49.78 1.471 -4 49.78 1.592 -2.523 49.78 0.609 -2.87 49.78 1.126 -2.401 49.78 0 -3.388 49.78 -1.471 -14.215 49.78 -0.914 -13.696 49.78 -1.689 -14.398 49.78 0 -14.215 49.78 0.914 -13.696 49.78 1.689 -12.918 49.78 2.206 -9.785 49.78 0.914 -10.304 49.78 1.689 -10.523 49.78 0.609 -10.87 49.78 1.126 -10.401 49.78 0 -11.388 49.78 -1.471 -10.87 49.78 -1.126 -12 49.78 -1.592 -20 49.78 2.388 -20.918 49.78 2.206 -17.785 49.78 0.914 -18.304 49.78 1.689 -18.304 49.78 -1.689 -17.785 49.78 -0.914 -21.599 49.78 0 -21.477 49.78 -0.609 -21.477 49.78 0.609 -20 49.78 1.592 -20.612 49.78 1.471 -9.6 46.8 2.376 -9.6 46.8 2.376 -9.6 0.02 2.376 -9.6 0.02 2.376 8.4 46.8 2.376 8.4 46.8 2.376 8.4 0.02 2.376 8.4 0.02 2.376 -22.381 0.02 2.376 -22.381 0.02 2.376 -22.381 46.8 2.376 -22.381 46.8 2.376 22.381 46.8 2.376 22.381 46.8 2.376 22.381 0.02 2.376 22.381 0.02 2.376 -23.96 47.98 -3.96 -23.96 47.98 -3.96 -23.96 47.98 3.96 -23.96 47.98 3.96 23.96 47.98 3.96 23.96 47.98 3.96 19.082 49.78 -2.206 20 49.78 -2.388 18.304 49.78 -1.689 20.918 49.78 -2.206 17.785 49.78 -0.914 18.304 49.78 1.689 17.785 49.78 0.914 19.082 49.78 2.206 21.696 49.78 -1.689 21.13 49.78 1.126 20.612 49.78 1.471 9.602 49.78 -0.012 9.785 49.78 -0.926 9.785 49.78 0.902 10.304 49.78 1.677 10.523 49.78 0.597 10.401 49.78 -0.012 13.13 49.78 1.114 12.612 49.78 1.459 13.477 49.78 0.597 13.13 49.78 -1.138 13.477 49.78 -0.621 12.612 49.78 -1.483 3.082 49.78 -2.206 4 49.78 -2.388 2.304 49.78 -1.689 4.918 49.78 -2.206 2.304 49.78 1.689 1.785 49.78 0.914 6.398 49.78 0 6.215 49.78 0.914 6.215 49.78 -0.914 2.87 49.78 1.126 2.523 49.78 0.609 5.477 49.78 0.609 5.13 49.78 1.126 5.13 49.78 -1.126 5.477 49.78 -0.609 4.612 49.78 -1.471 -1.602 49.78 0 -1.785 49.78 0.914 -3.082 49.78 -2.206 -2.304 49.78 -1.689 -2.87 49.78 -1.126 -2.523 49.78 -0.609 -12.918 49.78 -2.206 -12 49.78 -2.388 -11.082 49.78 -2.206 -11.082 49.78 2.206 -12 49.78 2.388 -9.785 49.78 -0.914 -9.602 49.78 0 -10.304 49.78 -1.689 -13.13 49.78 -1.126 -12.612 49.78 -1.471 -13.477 49.78 -0.609 -22.398 49.78 0 -22.215 49.78 -0.914 -22.215 49.78 0.914 -21.696 49.78 1.689 -20.612 49.78 -1.471 -20 49.78 -1.592 -21.13 49.78 -1.126 -19.388 49.78 -1.471 -18.87 49.78 1.126 -19.388 49.78 1.471 -18.523 49.78 0.609 -18.401 49.78 0 -18.523 49.78 -0.609 -9.6 0.02 -2.4 -9.6 0.02 -2.4 -8.4 0.02 2.376 -8.4 0.02 2.376 -8.4 46.8 2.376 -8.4 46.8 2.376 -8.4 46.8 -2.4 -8.4 46.8 -2.4 -8.4 0.02 -2.4 -8.4 0.02 -2.4 8.4 0.02 -2.4 8.4 0.02 -2.4 8.4 46.8 -2.4 8.4 46.8 -2.4 9.6 46.8 -2.4 9.6 46.8 -2.4 9.6 0.02 -2.4 9.6 0.02 -2.4 17.602 49.78 0 20 49.78 2.388 20.918 49.78 2.206 11.082 49.78 -2.218 10.304 49.78 -1.701 13.696 49.78 1.677 14.215 49.78 -0.926 11.388 49.78 -1.483 12 49.78 -1.604 10.87 49.78 1.114 11.388 49.78 1.459 12 49.78 1.58 13.599 49.78 -0.012 3.082 49.78 2.206 4 49.78 2.388 5.696 49.78 -1.689 3.388 49.78 -1.471 4 49.78 -1.592 3.388 49.78 1.471 4 49.78 1.592 4.612 49.78 1.471 5.599 49.78 0 -6.215 49.78 -0.914 -4.918 49.78 2.206 -4 49.78 2.388 -3.082 49.78 2.206 -2.304 49.78 1.689 -1.785 49.78 -0.914 -5.13 49.78 -1.126 -3.388 49.78 1.471 -13.599 49.78 0 -13.477 49.78 0.609 -13.13 49.78 1.126 -12.612 49.78 1.471 -12 49.78 1.592 -11.388 49.78 1.471 -10.523 49.78 -0.609 -20.918 49.78 -2.206 -20 49.78 -2.388 -21.696 49.78 -1.689 -19.082 49.78 2.206 -17.602 49.78 0 -19.082 49.78 -2.206 -21.13 49.78 1.126 -18.87 49.78 -1.126 -9.6 46.8 -2.4 -9.6 46.8 -2.4 9.6 0.02 2.376 9.6 0.02 2.376 9.6 46.8 2.376 9.6 46.8 2.376 23.96 0.02 -3.96 23.96 0.02 -3.96 -23.96 0.02 -3.96 -23.96 0.02 -3.96 22.381 0.02 -2.4 22.381 0.02 -2.4 -22.381 0.02 -2.4 -22.381 0.02 -2.4 -23.96 0.02 3.96 -23.96 0.02 3.96 23.96 0.02 3.96 23.96 0.02 3.96 22.381 46.8 -2.4 22.381 46.8 -2.4 -22.381 46.8 -2.4 -22.381 46.8 -2.4 23.96 47.98 -3.96 23.96 47.98 -3.96</float_array>
					<technique_common>
						<accessor source="#5B10C9C5-1A6F-4332-8979-F85EFC60969C-mesh-positions-array" count="672" stride="3">
							<param name="X" type="float"/>
							<param name="Y" type="float"/>
							<param name="Z" type="float"/>
						</accessor>
					</technique_common>
				</source>
				<vertices id="5B10C9C5-1A6F-4332-8979-F85EFC60969C-mesh-vertices">
					<input semantic="POSITION" source="#5B10C9C5-1A6F-4332-8979-F85EFC60969C-mesh-positions"/>
				</vertices>
				<triangles material="MB|5-material" count="636">
					<input semantic="VERTEX" source="#5B10C9C5-1A6F-4332-8979-F85EFC60969C-mesh-vertices" offset="0"/>
					<p>10 417 9 417 23 9 3 520 2 520 518 2 11 416 10 416 417 10 4 603 3 603 520 3 12 418 11 418 416 11 5 522 4 522 603 4 13 419 12 419 418 12 6 521 5 521 522 5 14 524 13 524 419 13 7 523 6 523 521 6 15 519 14 519 524 14 8 604 7 604 523 7 517 0 516 0 1 516 0 517 15 517 519 15 9 23 8 23 604 8 2 518 1 518 516 1 29 28 423 28 422 423 37 36 430 36 525 430 30 29 424 29 423 424 38 37 429 37 430 429 31 30 425 30 424 425 39 38 431 38 429 431 32 31 426 31 425 426 40 39 432 39 431 432 33 32 427 32 426 427 41 40 433 40 432 433 34 33 428 33 427 428 27 26 420 26 421 420 26 41 421 41 433 421 35 34 42 34 428 42 28 27 422 27 420 422 36 35 525 35 42 525 297 605 310 605 526 310 605 298 526 298 43 526 298 299 43 299 311 43 299 300 311 300 312 311 300 301 312 301 313 312 301 24 313 24 314 313 24 25 314 25 315 314 25 16 315 16 303 315 16 17 303 17 302 303 17 18 302 18 304 302 18 19 304 19 305 304 19 296 305 296 306 305 296 20 306 20 307 306 20 21 307 21 308 307 21 22 308 22 309 308 22 297 309 297 310 309 54 65 53 65 436 53 47 528 46 528 607 46 55 438 54 438 65 54 48 62 47 62 528 47 56 437 55 437 438 55 49 63 48 63 62 48 57 66 56 66 437 56 50 530 49 530 63 49 58 440 57 440 66 57 51 435 50 435 530 50 59 439 58 439 440 58 52 434 51 434 435 51 45 60 44 60 441 44 44 441 59 441 439 59 53 436 52 436 434 52 46 607 45 607 60 45 70 69 442 69 443 442 78 77 535 77 88 535 71 70 84 70 442 84 79 78 615 78 535 615 72 71 85 71 84 85 80 79 90 79 615 90 73 72 612 72 85 612 81 80 536 80 90 536 74 73 613 73 612 613 82 81 538 81 536 538 75 74 614 74 613 614 68 67 83 67 611 83 67 82 611 82 538 611 76 75 534 75 614 534 69 68 443 68 83 443 77 76 88 76 534 88 319 320 329 320 87 329 320 608 87 608 533 87 608 321 533 321 89 533 321 322 89 322 330 89 322 609 330 609 537 330 609 323 537 323 91 537 323 324 91 324 92 91 324 316 92 316 325 92 316 606 325 606 610 325 606 317 610 317 326 610 317 61 326 61 327 326 61 527 327 527 532 327 527 529 532 529 531 532 529 64 531 64 328 531 64 318 328 318 86 328 318 319 86 319 329 86 103 446 102 446 447 102 96 445 95 445 541 95 104 115 103 115 446 103 97 444 96 444 445 96 105 545 104 545 115 104 98 112 97 112 444 97 106 117 105 117 545 105 99 113 98 113 112 98 107 618 106 618 117 106 100 616 99 616 113 99 108 118 107 118 618 107 101 114 100 114 616 100 94 110 93 110 540 93 93 540 108 540 118 108 102 447 101 447 114 101 95 541 94 541 110 94 122 121 448 121 449 448 130 129 140 129 551 140 123 122 450 122 448 450 131 130 624 130 140 624 124 123 136 123 450 136 132 131 141 131 624 141 125 124 137 124 136 137 133 132 552 132 141 552 126 125 621 125 137 621 134 133 143 133 552 143 127 126 138 126 621 138 120 119 135 119 620 135 119 134 620 134 143 620 128 127 623 127 138 623 121 120 449 120 135 449 129 128 551 128 623 551 617 334 622 334 342 622 334 335 342 335 139 342 335 546 139 546 550 139 546 116 550 116 343 550 116 547 343 547 553 343 547 336 553 336 142 553 336 542 142 542 554 142 542 109 554 109 337 554 109 539 337 539 619 337 539 111 619 111 338 619 111 331 338 331 339 338 331 332 339 332 340 339 332 544 340 544 549 340 544 543 549 543 548 549 543 333 548 333 341 548 333 617 341 617 622 341 154 629 153 629 162 153 147 625 146 625 453 146 155 556 154 556 629 154 148 455 147 455 625 147 156 555 155 555 556 155 149 454 148 454 455 148 157 630 156 630 555 156 150 456 149 456 454 149 158 165 157 165 630 157 151 626 150 626 456 150 159 557 158 557 165 158 152 627 151 627 626 151 145 451 144 451 452 144 144 452 159 452 557 159 153 162 152 162 627 152 146 453 145 453 451 145 170 169 460 169 631 460 178 177 465 177 466 465 171 170 459 170 460 459 179 178 467 178 465 467 172 171 461 171 459 461 180 179 560 179 467 560 173 172 462 172 461 462 181 180 186 180 560 186 174 173 463 173 462 463 182 181 468 181 186 468 175 174 464 174 463 464 168 167 457 167 458 457 167 182 458 182 468 458 176 175 184 175 464 184 169 168 631 168 457 631 177 176 466 176 184 466 350 628 360 628 632 360 628 351 632 351 361 632 351 163 361 163 362 361 163 164 362 164 363 362 164 352 363 352 185 363 352 558 185 558 559 185 558 166 559 166 364 559 166 345 364 345 354 364 345 344 354 344 353 354 344 346 353 346 183 353 346 160 183 160 355 183 160 347 355 347 356 355 347 348 356 348 357 356 348 349 357 349 358 357 349 161 358 161 359 358 161 350 359 350 360 359 197 476 196 476 206 196 190 469 189 469 470 189 198 475 197 475 476 197 191 471 190 471 469 190 199 567 198 567 475 198 192 472 191 472 471 191 200 208 199 208 567 199 193 473 192 473 472 192 201 568 200 568 208 200 194 474 193 474 473 193 202 563 201 563 568 201 195 565 194 565 474 194 188 204 187 204 562 187 187 562 202 562 563 202 196 206 195 206 565 195 189 470 188 470 204 188 214 213 571 213 569 571 222 221 477 221 478 477 215 214 633 214 571 633 223 222 479 222 477 479 216 215 634 215 633 634 224 223 233 223 479 233 217 216 635 216 634 635 225 224 481 224 233 481 218 217 636 217 635 636 226 225 480 225 481 480 219 218 637 218 636 637 212 211 227 211 482 227 211 226 482 226 480 482 220 219 232 219 637 232 213 212 569 212 227 569 221 220 478 220 232 478 205 564 376 564 638 376 564 371 638 371 377 638 371 372 377 372 378 377 372 207 378 207 379 378 207 566 379 566 639 379 566 209 639 209 380 639 209 210 380 210 381 380 210 203 381 203 373 381 203 561 373 561 570 373 561 365 570 365 228 570 365 366 228 366 229 228 366 367 229 367 374 229 367 368 374 368 230 374 368 369 230 369 375 230 369 370 375 370 231 375 370 205 231 205 376 231 244 486 243 486 255 243 237 573 236 573 642 236 245 485 244 485 486 244 238 572 237 572 573 237 246 256 245 256 485 245 239 574 238 574 572 238 247 488 246 488 256 246 240 254 239 254 574 239 248 487 247 487 488 247 241 484 240 484 254 240 249 257 248 257 487 248 242 483 241 483 484 241 235 250 234 250 641 234 234 641 249 641 257 249 243 255 242 255 483 242 236 642 235 642 250 235 261 260 490 260 578 490 269 268 582 268 580 582 262 261 489 261 490 489 270 269 281 269 582 281 263 262 491 262 489 491 271 270 584 270 281 584 264 263 277 263 491 277 272 271 647 271 584 647 265 264 493 264 277 493 273 272 283 272 647 283 266 265 492 265 493 492 259 258 275 258 577 275 258 273 577 273 283 577 267 266 278 266 492 278 260 259 578 259 275 578 268 267 580 267 278 580 385 643 394 643 581 394 643 386 581 386 279 581 386 387 279 387 280 279 387 644 280 644 583 280 644 388 583 388 282 583 388 389 282 389 395 282 389 645 395 645 579 395 645 382 579 382 274 579 382 640 274 640 576 274 640 383 576 383 276 576 383 251 276 251 390 276 251 252 390 252 391 390 252 253 391 253 392 391 253 575 392 575 646 392 575 384 646 384 393 646 384 385 393 385 394 393 497 585 588 585 594 588 664 501 650 593 591 587 591 589 587 496 494 586 494 648 586 662 497 588 662 588 501 501 595 650 595 601 650 664 650 509 602 599 651 599 652 651 500 498 596 498 597 596 658 601 654 664 662 501 662 656 503 656 660 503 654 664 658 664 509 658 662 503 497 506 508 653 508 289 653 507 401 666 401 600 666 499 399 590 399 284 590 659 406 667 406 410 667 502 661 504 661 668 504 655 657 670 657 511 670 671 510 514 510 512 514 665 404 515 404 412 515 405 663 413 663 513 413 408 294 414 294 415 414 505 495 407 495 397 407 402 396 669 396 649 669 592 285 598 285 290 598 295 293 403 293 291 403 400 286 292 286 288 292 409 287 411 287 398 411 601 595 654 656 594 585 595 656 654 660 656 585 656 595 594</p>
				</triangles>
			</mesh>
		</geometry>
		<geometry id="5F5A67DE-F600-48F4-AD46-BDE5F5937065-mesh" name="5F5A67DE-F600-48F4-AD46-BDE5F5937065">
			<mesh>
				<source id="5F5A67DE-F600-48F4-AD46-BDE5F5937065-mesh-positions">
					<float_array id="5F5A67DE-F600-48F4-AD46-BDE5F5937065-mesh-positions-array" count="2016">20 47.98 -2.388 19.082 47.98 -2.206 18.304 47.98 -1.689 17.785 47.98 -0.914 17.602 47.98 0 17.785 47.98 0.914 18.304 47.98 1.689 19.082 47.98 2.206 20 47.98 2.388 20.918 47.98 2.206 21.696 47.98 1.689 22.215 47.98 0.914 22.398 47.98 0 22.215 47.98 -0.914 21.696 47.98 -1.689 20.918 47.98 -2.206 20 49.78 -2.388 19.082 49.78 -2.206 18.304 49.78 -1.689 17.785 49.78 -0.914 17.785 49.78 0.914 18.304 49.78 1.689 19.082 49.78 2.206 20.918 49.78 2.206 21.696 49.78 -1.689 20.918 49.78 -2.206 20 47.98 -1.592 19.388 47.98 -1.471 18.87 47.98 -1.126 18.523 47.98 -0.609 18.401 47.98 0 18.523 47.98 0.609 18.87 47.98 1.126 19.388 47.98 1.471 20 47.98 1.592 20.612 47.98 1.471 21.13 47.98 1.126 21.477 47.98 0.609 21.599 47.98 0 21.477 47.98 -0.609 21.13 47.98 -1.126 20.612 47.98 -1.471 20.612 49.78 1.471 21.13 49.78 1.126 12 47.98 -2.4 11.082 47.98 -2.218 10.304 47.98 -1.701 9.785 47.98 -0.926 9.602 47.98 -0.012 9.785 47.98 0.902 10.304 47.98 1.677 11.082 47.98 2.194 12 47.98 2.376 12.918 47.98 2.194 13.696 47.98 1.677 14.215 47.98 0.902 14.398 47.98 -0.012 14.215 47.98 -0.926 13.696 47.98 -1.701 12.918 47.98 -2.218 11.082 49.78 -2.218 9.785 49.78 -0.926 9.602 49.78 -0.012 9.785 49.78 0.902 10.304 49.78 1.677 13.696 49.78 1.677 14.215 49.78 -0.926 12 47.98 -1.604 11.388 47.98 -1.483 10.87 47.98 -1.138 10.523 47.98 -0.621 10.401 47.98 -0.012 10.523 47.98 0.597 10.87 47.98 1.114 11.388 47.98 1.459 12 47.98 1.58 12.612 47.98 1.459 13.13 47.98 1.114 13.477 47.98 0.597 13.599 47.98 -0.012 13.477 47.98 -0.621 13.13 47.98 -1.138 12.612 47.98 -1.483 11.388 49.78 -1.483 10.401 49.78 -0.012 10.523 49.78 0.597 11.388 49.78 1.459 12.612 49.78 1.459 13.13 49.78 1.114 13.477 49.78 0.597 13.477 49.78 -0.621 13.13 49.78 -1.138 12.612 49.78 -1.483 4 47.98 -2.388 3.082 47.98 -2.206 2.304 47.98 -1.689 1.785 47.98 -0.914 1.602 47.98 0 1.785 47.98 0.914 2.304 47.98 1.689 3.082 47.98 2.206 4 47.98 2.388 4.918 47.98 2.206 5.696 47.98 1.689 6.215 47.98 0.914 6.398 47.98 0 6.215 47.98 -0.914 5.696 47.98 -1.689 4.918 47.98 -2.206 4 49.78 -2.388 3.082 49.78 -2.206 2.304 49.78 -1.689 1.785 49.78 0.914 2.304 49.78 1.689 4 49.78 2.388 6.215 49.78 0.914 6.398 49.78 0 6.215 49.78 -0.914 4.918 49.78 -2.206 4 47.98 -1.592 3.388 47.98 -1.471 2.87 47.98 -1.126 2.523 47.98 -0.609 2.401 47.98 0 2.523 47.98 0.609 2.87 47.98 1.126 3.388 47.98 1.471 4 47.98 1.592 4.612 47.98 1.471 5.13 47.98 1.126 5.477 47.98 0.609 5.599 47.98 0 5.477 47.98 -0.609 5.13 47.98 -1.126 4.612 47.98 -1.471 3.388 49.78 -1.471 2.523 49.78 0.609 2.87 49.78 1.126 4 49.78 1.592 5.13 49.78 1.126 5.477 49.78 0.609 5.477 49.78 -0.609 5.13 49.78 -1.126 4.612 49.78 -1.471 -4 47.98 -2.388 -4.918 47.98 -2.206 -5.696 47.98 -1.689 -6.215 47.98 -0.914 -6.398 47.98 0 -6.215 47.98 0.914 -5.696 47.98 1.689 -4.918 47.98 2.206 -4 47.98 2.388 -3.082 47.98 2.206 -2.304 47.98 1.689 -1.785 47.98 0.914 -1.602 47.98 0 -1.785 47.98 -0.914 -2.304 47.98 -1.689 -3.082 47.98 -2.206 -6.215 49.78 -0.914 -4.918 49.78 2.206 -3.082 49.78 2.206 -1.785 49.78 0.914 -1.602 49.78 0 -2.304 49.78 -1.689 -3.082 49.78 -2.206 -4 47.98 -1.592 -4.612 47.98 -1.471 -5.13 47.98 -1.126 -5.477 47.98 -0.609 -5.599 47.98 0 -5.477 47.98 0.609 -5.13 47.98 1.126 -4.612 47.98 1.471 -4 47.98 1.592 -3.388 47.98 1.471 -2.87 47.98 1.126 -2.523 47.98 0.609 -2.401 47.98 0 -2.523 47.98 -0.609 -2.87 47.98 -1.126 -3.388 47.98 -1.471 -5.13 49.78 -1.126 -3.388 49.78 1.471 -2.523 49.78 -0.609 -2.87 49.78 -1.126 -12 47.98 -2.388 -12.918 47.98 -2.206 -13.696 47.98 -1.689 -14.215 47.98 -0.914 -14.398 47.98 0 -14.215 47.98 0.914 -13.696 47.98 1.689 -12.918 47.98 2.206 -12 47.98 2.388 -11.082 47.98 2.206 -10.304 47.98 1.689 -9.785 47.98 0.914 -9.602 47.98 0 -9.785 47.98 -0.914 -10.304 47.98 -1.689 -11.082 47.98 -2.206 -12 49.78 -2.388 -12.918 49.78 -2.206 -12 49.78 2.388 -11.082 49.78 2.206 -9.602 49.78 0 -9.785 49.78 -0.914 -10.304 49.78 -1.689 -11.082 49.78 -2.206 -12 47.98 -1.592 -12.612 47.98 -1.471 -13.13 47.98 -1.126 -13.477 47.98 -0.609 -13.599 47.98 0 -13.477 47.98 0.609 -13.13 47.98 1.126 -12.612 47.98 1.471 -12 47.98 1.592 -11.388 47.98 1.471 -10.87 47.98 1.126 -10.523 47.98 0.609 -10.401 47.98 0 -10.523 47.98 -0.609 -10.87 47.98 -1.126 -11.388 47.98 -1.471 -12.612 49.78 -1.471 -13.13 49.78 -1.126 -13.477 49.78 -0.609 -13.477 49.78 0.609 -12.612 49.78 1.471 -11.388 49.78 1.471 -10.523 49.78 -0.609 -20 47.98 -2.388 -20.918 47.98 -2.206 -21.696 47.98 -1.689 -22.215 47.98 -0.914 -22.398 47.98 0 -22.215 47.98 0.914 -21.696 47.98 1.689 -20.918 47.98 2.206 -20 47.98 2.388 -19.082 47.98 2.206 -18.304 47.98 1.689 -17.785 47.98 0.914 -17.602 47.98 0 -17.785 47.98 -0.914 -18.304 47.98 -1.689 -19.082 47.98 -2.206 -20.918 49.78 -2.206 -22.215 49.78 -0.914 -22.398 49.78 0 -22.215 49.78 0.914 -21.696 49.78 1.689 -19.082 49.78 2.206 -17.602 49.78 0 -19.082 49.78 -2.206 -20 47.98 -1.592 -20.612 47.98 -1.471 -21.13 47.98 -1.126 -21.477 47.98 -0.609 -21.599 47.98 0 -21.477 47.98 0.609 -21.13 47.98 1.126 -20.612 47.98 1.471 -20 47.98 1.592 -19.388 47.98 1.471 -18.87 47.98 1.126 -18.523 47.98 0.609 -18.401 47.98 0 -18.523 47.98 -0.609 -18.87 47.98 -1.126 -19.388 47.98 -1.471 -20 49.78 -1.592 -20.612 49.78 -1.471 -21.13 49.78 -1.126 -21.13 49.78 1.126 -19.388 49.78 1.471 -18.87 49.78 1.126 -18.523 49.78 0.609 -18.401 49.78 0 -18.523 49.78 -0.609 -19.388 49.78 -1.471 -8.4 0.02 2.376 -8.4 0.02 -2.4 -8.4 46.8 2.376 -9.6 46.8 -2.4 -8.4 46.8 -2.4 9.6 0.02 2.376 8.4 0.02 -2.4 9.6 0.02 -2.4 8.4 46.8 -2.4 9.6 46.8 -2.4 23.96 0.02 3.96 22.381 46.8 -2.4 17.602 49.78 0 20 49.78 2.388 21.696 49.78 1.689 22.215 49.78 0.914 22.398 49.78 0 22.215 49.78 -0.914 19.388 49.78 -1.471 20 49.78 -1.592 18.87 49.78 -1.126 18.523 49.78 -0.609 18.401 49.78 0 18.523 49.78 0.609 18.87 49.78 1.126 19.388 49.78 1.471 20 49.78 1.592 21.477 49.78 0.609 21.599 49.78 0 21.477 49.78 -0.609 21.13 49.78 -1.126 20.612 49.78 -1.471 12 49.78 -2.4 10.304 49.78 -1.701 11.082 49.78 2.194 12 49.78 2.376 12.918 49.78 2.194 14.215 49.78 0.902 14.398 49.78 -0.012 13.696 49.78 -1.701 12.918 49.78 -2.218 12 49.78 -1.604 10.87 49.78 -1.138 10.523 49.78 -0.621 10.87 49.78 1.114 12 49.78 1.58 13.599 49.78 -0.012 1.785 49.78 -0.914 1.602 49.78 0 3.082 49.78 2.206 4.918 49.78 2.206 5.696 49.78 1.689 5.696 49.78 -1.689 4 49.78 -1.592 2.87 49.78 -1.126 2.523 49.78 -0.609 2.401 49.78 0 3.388 49.78 1.471 4.612 49.78 1.471 5.599 49.78 0 -4.918 49.78 -2.206 -4 49.78 -2.388 -5.696 49.78 -1.689 -6.398 49.78 0 -6.215 49.78 0.914 -5.696 49.78 1.689 -4 49.78 2.388 -2.304 49.78 1.689 -1.785 49.78 -0.914 -4.612 49.78 -1.471 -4 49.78 -1.592 -5.477 49.78 -0.609 -5.599 49.78 0 -5.477 49.78 0.609 -5.13 49.78 1.126 -4.612 49.78 1.471 -4 49.78 1.592 -2.87 49.78 1.126 -2.523 49.78 0.609 -2.401 49.78 0 -3.388 49.78 -1.471 -13.696 49.78 -1.689 -14.215 49.78 -0.914 -14.398 49.78 0 -14.215 49.78 0.914 -13.696 49.78 1.689 -12.918 49.78 2.206 -10.304 49.78 1.689 -9.785 49.78 0.914 -12 49.78 -1.592 -13.599 49.78 0 -13.13 49.78 1.126 -12 49.78 1.592 -10.87 49.78 1.126 -10.523 49.78 0.609 -10.401 49.78 0 -10.87 49.78 -1.126 -11.388 49.78 -1.471 -20 49.78 -2.388 -21.696 49.78 -1.689 -20.918 49.78 2.206 -20 49.78 2.388 -18.304 49.78 1.689 -17.785 49.78 0.914 -17.785 49.78 -0.914 -18.304 49.78 -1.689 -21.477 49.78 -0.609 -21.599 49.78 0 -21.477 49.78 0.609 -20.612 49.78 1.471 -20 49.78 1.592 -18.87 49.78 -1.126 -9.6 0.02 -2.4 -9.6 0.02 2.376 -9.6 46.8 2.376 8.4 0.02 2.376 8.4 46.8 2.376 9.6 46.8 2.376 -22.381 0.02 -2.4 22.381 0.02 -2.4 23.96 0.02 -3.96 -23.96 0.02 -3.96 22.381 0.02 2.376 -22.381 0.02 2.376 -23.96 0.02 3.96 -22.381 46.8 -2.4 22.381 46.8 2.376 -22.381 46.8 2.376 23.96 47.98 -3.96 -23.96 47.98 -3.96 -23.96 47.98 3.96 23.96 47.98 3.96 22.215 49.78 0.914 21.696 49.78 1.689 22.398 49.78 0 22.215 49.78 -0.914 19.388 49.78 -1.471 20 49.78 -1.592 18.87 49.78 -1.126 18.523 49.78 -0.609 18.401 49.78 0 18.523 49.78 0.609 18.87 49.78 1.126 19.388 49.78 1.471 20 49.78 1.592 21.599 49.78 0 21.477 49.78 0.609 21.477 49.78 -0.609 21.13 49.78 -1.126 20.612 49.78 -1.471 12 49.78 2.376 11.082 49.78 2.194 12.918 49.78 2.194 14.398 49.78 -0.012 14.215 49.78 0.902 12.918 49.78 -2.218 13.696 49.78 -1.701 12 49.78 -2.4 10.523 49.78 -0.621 10.87 49.78 -1.138 1.602 49.78 0 1.785 49.78 -0.914 5.696 49.78 1.689 4.918 49.78 2.206 2.523 49.78 -0.609 2.87 49.78 -1.126 2.401 49.78 0 -4.918 49.78 -2.206 -4 49.78 -2.388 -5.696 49.78 -1.689 -6.215 49.78 0.914 -6.398 49.78 0 -5.696 49.78 1.689 -4.612 49.78 -1.471 -4 49.78 -1.592 -5.599 49.78 0 -5.477 49.78 -0.609 -5.477 49.78 0.609 -5.13 49.78 1.126 -4.612 49.78 1.471 -4 49.78 1.592 -2.523 49.78 0.609 -2.87 49.78 1.126 -2.401 49.78 0 -3.388 49.78 -1.471 -14.215 49.78 -0.914 -13.696 49.78 -1.689 -14.398 49.78 0 -14.215 49.78 0.914 -13.696 49.78 1.689 -12.918 49.78 2.206 -9.785 49.78 0.914 -10.304 49.78 1.689 -10.523 49.78 0.609 -10.87 49.78 1.126 -10.401 49.78 0 -11.388 49.78 -1.471 -10.87 49.78 -1.126 -12 49.78 -1.592 -20 49.78 2.388 -20.918 49.78 2.206 -17.785 49.78 0.914 -18.304 49.78 1.689 -18.304 49.78 -1.689 -17.785 49.78 -0.914 -21.599 49.78 0 -21.477 49.78 -0.609 -21.477 49.78 0.609 -20 49.78 1.592 -20.612 49.78 1.471 -9.6 46.8 2.376 -9.6 46.8 2.376 -9.6 0.02 2.376 -9.6 0.02 2.376 8.4 46.8 2.376 8.4 46.8 2.376 8.4 0.02 2.376 8.4 0.02 2.376 -22.381 0.02 2.376 -22.381 0.02 2.376 -22.381 46.8 2.376 -22.381 46.8 2.376 22.381 46.8 2.376 22.381 46.8 2.376 22.381 0.02 2.376 22.381 0.02 2.376 -23.96 47.98 -3.96 -23.96 47.98 -3.96 -23.96 47.98 3.96 -23.96 47.98 3.96 23.96 47.98 3.96 23.96 47.98 3.96 19.082 49.78 -2.206 20 49.78 -2.388 18.304 49.78 -1.689 20.918 49.78 -2.206 17.785 49.78 -0.914 18.304 49.78 1.689 17.785 49.78 0.914 19.082 49.78 2.206 21.696 49.78 -1.689 21.13 49.78 1.126 20.612 49.78 1.471 9.602 49.78 -0.012 9.785 49.78 -0.926 9.785 49.78 0.902 10.304 49.78 1.677 10.523 49.78 0.597 10.401 49.78 -0.012 13.13 49.78 1.114 12.612 49.78 1.459 13.477 49.78 0.597 13.13 49.78 -1.138 13.477 49.78 -0.621 12.612 49.78 -1.483 3.082 49.78 -2.206 4 49.78 -2.388 2.304 49.78 -1.689 4.918 49.78 -2.206 2.304 49.78 1.689 1.785 49.78 0.914 6.398 49.78 0 6.215 49.78 0.914 6.215 49.78 -0.914 2.87 49.78 1.126 2.523 49.78 0.609 5.477 49.78 0.609 5.13 49.78 1.126 5.13 49.78 -1.126 5.477 49.78 -0.609 4.612 49.78 -1.471 -1.602 49.78 0 -1.785 49.78 0.914 -3.082 49.78 -2.206 -2.304 49.78 -1.689 -2.87 49.78 -1.126 -2.523 49.78 -0.609 -12.918 49.78 -2.206 -12 49.78 -2.388 -11.082 49.78 -2.206 -11.082 49.78 2.206 -12 49.78 2.388 -9.785 49.78 -0.914 -9.602 49.78 0 -10.304 49.78 -1.689 -13.13 49.78 -1.126 -12.612 49.78 -1.471 -13.477 49.78 -0.609 -22.398 49.78 0 -22.215 49.78 -0.914 -22.215 49.78 0.914 -21.696 49.78 1.689 -20.612 49.78 -1.471 -20 49.78 -1.592 -21.13 49.78 -1.126 -19.388 49.78 -1.471 -18.87 49.78 1.126 -19.388 49.78 1.471 -18.523 49.78 0.609 -18.401 49.78 0 -18.523 49.78 -0.609 -9.6 0.02 -2.4 -9.6 0.02 -2.4 -8.4 0.02 2.376 -8.4 0.02 2.376 -8.4 46.8 2.376 -8.4 46.8 2.376 -8.4 46.8 -2.4 -8.4 46.8 -2.4 -8.4 0.02 -2.4 -8.4 0.02 -2.4 8.4 0.02 -2.4 8.4 0.02 -2.4 8.4 46.8 -2.4 8.4 46.8 -2.4 9.6 46.8 -2.4 9.6 46.8 -2.4 9.6 0.02 -2.4 9.6 0.02 -2.4 17.602 49.78 0 20 49.78 2.388 20.918 49.78 2.206 11.082 49.78 -2.218 10.304 49.78 -1.701 13.696 49.78 1.677 14.215 49.78 -0.926 11.388 49.78 -1.483 12 49.78 -1.604 10.87 49.78 1.114 11.388 49.78 1.459 12 49.78 1.58 13.599 49.78 -0.012 3.082 49.78 2.206 4 49.78 2.388 5.696 49.78 -1.689 3.388 49.78 -1.471 4 49.78 -1.592 3.388 49.78 1.471 4 49.78 1.592 4.612 49.78 1.471 5.599 49.78 0 -6.215 49.78 -0.914 -4.918 49.78 2.206 -4 49.78 2.388 -3.082 49.78 2.206 -2.304 49.78 1.689 -1.785 49.78 -0.914 -5.13 49.78 -1.126 -3.388 49.78 1.471 -13.599 49.78 0 -13.477 49.78 0.609 -13.13 49.78 1.126 -12.612 49.78 1.471 -12 49.78 1.592 -11.388 49.78 1.471 -10.523 49.78 -0.609 -20.918 49.78 -2.206 -20 49.78 -2.388 -21.696 49.78 -1.689 -19.082 49.78 2.206 -17.602 49.78 0 -19.082 49.78 -2.206 -21.13 49.78 1.126 -18.87 49.78 -1.126 -9.6 46.8 -2.4 -9.6 46.8 -2.4 9.6 0.02 2.376 9.6 0.02 2.376 9.6 46.8 2.376 9.6 46.8 2.376 23.96 0.02 -3.96 23.96 0.02 -3.96 -23.96 0.02 -3.96 -23.96 0.02 -3.96 22.381 0.02 -2.4 22.381 0.02 -2.4 -22.381 0.02 -2.4 -22.381 0.02 -2.4 -23.96 0.02 3.96 -23.96 0.02 3.96 23.96 0.02 3.96 23.96 0.02 3.96 22.381 46.8 -2.4 22.381 46.8 -2.4 -22.381 46.8 -2.4 -22.381 46.8 -2.4 23.96 47.98 -3.96 23.96 47.98 -3.96</float_array>
					<technique_common>
						<accessor source="#5F5A67DE-F600-48F4-AD46-BDE5F5937065-mesh-positions-array" count="672" stride="3">
							<param name="X" type="float"/>
							<param name="Y" type="float"/>
							<param name="Z" type="float"/>
						</accessor>
					</technique_common>
				</source>
				<vertices id="5F5A67DE-F600-48F4-AD46-BDE5F5937065-mesh-vertices">
					<input semantic="POSITION" source="#5F5A67DE-F600-48F4-AD46-BDE5F5937065-mesh-positions"/>
				</vertices>
				<triangles material="MB|5-material" count="636">
					<input semantic="VERTEX" source="#5F5A67DE-F600-48F4-AD46-BDE5F5937065-mesh-vertices" offset="0"/>
					<p>10 417 9 417 23 9 3 520 2 520 518 2 11 416 10 416 417 10 4 603 3 603 520 3 12 418 11 418 416 11 5 522 4 522 603 4 13 419 12 419 418 12 6 521 5 521 522 5 14 524 13 524 419 13 7 523 6 523 521 6 15 519 14 519 524 14 8 604 7 604 523 7 517 0 516 0 1 516 0 517 15 517 519 15 9 23 8 23 604 8 2 518 1 518 516 1 29 28 423 28 422 423 37 36 430 36 525 430 30 29 424 29 423 424 38 37 429 37 430 429 31 30 425 30 424 425 39 38 431 38 429 431 32 31 426 31 425 426 40 39 432 39 431 432 33 32 427 32 426 427 41 40 433 40 432 433 34 33 428 33 427 428 27 26 420 26 421 420 26 41 421 41 433 421 35 34 42 34 428 42 28 27 422 27 420 422 36 35 525 35 42 525 297 605 310 605 526 310 605 298 526 298 43 526 298 299 43 299 311 43 299 300 311 300 312 311 300 301 312 301 313 312 301 24 313 24 314 313 24 25 314 25 315 314 25 16 315 16 303 315 16 17 303 17 302 303 17 18 302 18 304 302 18 19 304 19 305 304 19 296 305 296 306 305 296 20 306 20 307 306 20 21 307 21 308 307 21 22 308 22 309 308 22 297 309 297 310 309 54 65 53 65 436 53 47 528 46 528 607 46 55 438 54 438 65 54 48 62 47 62 528 47 56 437 55 437 438 55 49 63 48 63 62 48 57 66 56 66 437 56 50 530 49 530 63 49 58 440 57 440 66 57 51 435 50 435 530 50 59 439 58 439 440 58 52 434 51 434 435 51 45 60 44 60 441 44 44 441 59 441 439 59 53 436 52 436 434 52 46 607 45 607 60 45 70 69 442 69 443 442 78 77 535 77 88 535 71 70 84 70 442 84 79 78 615 78 535 615 72 71 85 71 84 85 80 79 90 79 615 90 73 72 612 72 85 612 81 80 536 80 90 536 74 73 613 73 612 613 82 81 538 81 536 538 75 74 614 74 613 614 68 67 83 67 611 83 67 82 611 82 538 611 76 75 534 75 614 534 69 68 443 68 83 443 77 76 88 76 534 88 319 320 329 320 87 329 320 608 87 608 533 87 608 321 533 321 89 533 321 322 89 322 330 89 322 609 330 609 537 330 609 323 537 323 91 537 323 324 91 324 92 91 324 316 92 316 325 92 316 606 325 606 610 325 606 317 610 317 326 610 317 61 326 61 327 326 61 527 327 527 532 327 527 529 532 529 531 532 529 64 531 64 328 531 64 318 328 318 86 328 318 319 86 319 329 86 103 446 102 446 447 102 96 445 95 445 541 95 104 115 103 115 446 103 97 444 96 444 445 96 105 545 104 545 115 104 98 112 97 112 444 97 106 117 105 117 545 105 99 113 98 113 112 98 107 618 106 618 117 106 100 616 99 616 113 99 108 118 107 118 618 107 101 114 100 114 616 100 94 110 93 110 540 93 93 540 108 540 118 108 102 447 101 447 114 101 95 541 94 541 110 94 122 121 448 121 449 448 130 129 140 129 551 140 123 122 450 122 448 450 131 130 624 130 140 624 124 123 136 123 450 136 132 131 141 131 624 141 125 124 137 124 136 137 133 132 552 132 141 552 126 125 621 125 137 621 134 133 143 133 552 143 127 126 138 126 621 138 120 119 135 119 620 135 119 134 620 134 143 620 128 127 623 127 138 623 121 120 449 120 135 449 129 128 551 128 623 551 617 334 622 334 342 622 334 335 342 335 139 342 335 546 139 546 550 139 546 116 550 116 343 550 116 547 343 547 553 343 547 336 553 336 142 553 336 542 142 542 554 142 542 109 554 109 337 554 109 539 337 539 619 337 539 111 619 111 338 619 111 331 338 331 339 338 331 332 339 332 340 339 332 544 340 544 549 340 544 543 549 543 548 549 543 333 548 333 341 548 333 617 341 617 622 341 154 629 153 629 162 153 147 625 146 625 453 146 155 556 154 556 629 154 148 455 147 455 625 147 156 555 155 555 556 155 149 454 148 454 455 148 157 630 156 630 555 156 150 456 149 456 454 149 158 165 157 165 630 157 151 626 150 626 456 150 159 557 158 557 165 158 152 627 151 627 626 151 145 451 144 451 452 144 144 452 159 452 557 159 153 162 152 162 627 152 146 453 145 453 451 145 170 169 460 169 631 460 178 177 465 177 466 465 171 170 459 170 460 459 179 178 467 178 465 467 172 171 461 171 459 461 180 179 560 179 467 560 173 172 462 172 461 462 181 180 186 180 560 186 174 173 463 173 462 463 182 181 468 181 186 468 175 174 464 174 463 464 168 167 457 167 458 457 167 182 458 182 468 458 176 175 184 175 464 184 169 168 631 168 457 631 177 176 466 176 184 466 350 628 360 628 632 360 628 351 632 351 361 632 351 163 361 163 362 361 163 164 362 164 363 362 164 352 363 352 185 363 352 558 185 558 559 185 558 166 559 166 364 559 166 345 364 345 354 364 345 344 354 344 353 354 344 346 353 346 183 353 346 160 183 160 355 183 160 347 355 347 356 355 347 348 356 348 357 356 348 349 357 349 358 357 349 161 358 161 359 358 161 350 359 350 360 359 197 476 196 476 206 196 190 469 189 469 470 189 198 475 197 475 476 197 191 471 190 471 469 190 199 567 198 567 475 198 192 472 191 472 471 191 200 208 199 208 567 199 193 473 192 473 472 192 201 568 200 568 208 200 194 474 193 474 473 193 202 563 201 563 568 201 195 565 194 565 474 194 188 204 187 204 562 187 187 562 202 562 563 202 196 206 195 206 565 195 189 470 188 470 204 188 214 213 571 213 569 571 222 221 477 221 478 477 215 214 633 214 571 633 223 222 479 222 477 479 216 215 634 215 633 634 224 223 233 223 479 233 217 216 635 216 634 635 225 224 481 224 233 481 218 217 636 217 635 636 226 225 480 225 481 480 219 218 637 218 636 637 212 211 227 211 482 227 211 226 482 226 480 482 220 219 232 219 637 232 213 212 569 212 227 569 221 220 478 220 232 478 205 564 376 564 638 376 564 371 638 371 377 638 371 372 377 372 378 377 372 207 378 207 379 378 207 566 379 566 639 379 566 209 639 209 380 639 209 210 380 210 381 380 210 203 381 203 373 381 203 561 373 561 570 373 561 365 570 365 228 570 365 366 228 366 229 228 366 367 229 367 374 229 367 368 374 368 230 374 368 369 230 369 375 230 369 370 375 370 231 375 370 205 231 205 376 231 244 486 243 486 255 243 237 573 236 573 642 236 245 485 244 485 486 244 238 572 237 572 573 237 246 256 245 256 485 245 239 574 238 574 572 238 247 488 246 488 256 246 240 254 239 254 574 239 248 487 247 487 488 247 241 484 240 484 254 240 249 257 248 257 487 248 242 483 241 483 484 241 235 250 234 250 641 234 234 641 249 641 257 249 243 255 242 255 483 242 236 642 235 642 250 235 261 260 490 260 578 490 269 268 582 268 580 582 262 261 489 261 490 489 270 269 281 269 582 281 263 262 491 262 489 491 271 270 584 270 281 584 264 263 277 263 491 277 272 271 647 271 584 647 265 264 493 264 277 493 273 272 283 272 647 283 266 265 492 265 493 492 259 258 275 258 577 275 258 273 577 273 283 577 267 266 278 266 492 278 260 259 578 259 275 578 268 267 580 267 278 580 385 643 394 643 581 394 643 386 581 386 279 581 386 387 279 387 280 279 387 644 280 644 583 280 644 388 583 388 282 583 388 389 282 389 395 282 389 645 395 645 579 395 645 382 579 382 274 579 382 640 274 640 576 274 640 383 576 383 276 576 383 251 276 251 390 276 251 252 390 252 391 390 252 253 391 253 392 391 253 575 392 575 646 392 575 384 646 384 393 646 384 385 393 385 394 393 497 585 588 585 594 588 664 501 650 593 591 587 591 589 587 496 494 586 494 648 586 662 497 588 662 588 501 501 595 650 595 601 650 664 650 509 602 599 651 599 652 651 500 498 596 498 597 596 658 601 654 664 662 501 662 656 503 656 660 503 654 664 658 664 509 658 662 503 497 506 508 653 508 289 653 507 401 666 401 600 666 499 399 590 399 284 590 659 406 667 406 410 667 502 661 504 661 668 504 655 657 670 657 511 670 671 510 514 510 512 514 665 404 515 404 412 515 405 663 413 663 513 413 408 294 414 294 415 414 505 495 407 495 397 407 402 396 669 396 649 669 592 285 598 285 290 598 295 293 403 293 291 403 400 286 292 286 288 292 409 287 411 287 398 411 601 595 654 656 594 585 595 656 654 660 656 585 656 595 594</p>
				</triangles>
			</mesh>
		</geometry>
		<geometry id="94C91F62-D3FA-43D7-B119-6980B1314E3F-mesh" name="94C91F62-D3FA-43D7-B119-6980B1314E3F">
			<mesh>
				<source id="94C91F62-D3FA-43D7-B119-6980B1314E3F-mesh-positions">
					<float_array id="94C91F62-D3FA-43D7-B119-6980B1314E3F-mesh-positions-array" count="2016">20 47.98 -2.388 19.082 47.98 -2.206 18.304 47.98 -1.689 17.785 47.98 -0.914 17.602 47.98 0 17.785 47.98 0.914 18.304 47.98 1.689 19.082 47.98 2.206 20 47.98 2.388 20.918 47.98 2.206 21.696 47.98 1.689 22.215 47.98 0.914 22.398 47.98 0 22.215 47.98 -0.914 21.696 47.98 -1.689 20.918 47.98 -2.206 20 49.78 -2.388 19.082 49.78 -2.206 18.304 49.78 -1.689 17.785 49.78 -0.914 17.785 49.78 0.914 18.304 49.78 1.689 19.082 49.78 2.206 20.918 49.78 2.206 21.696 49.78 -1.689 20.918 49.78 -2.206 20 47.98 -1.592 19.388 47.98 -1.471 18.87 47.98 -1.126 18.523 47.98 -0.609 18.401 47.98 0 18.523 47.98 0.609 18.87 47.98 1.126 19.388 47.98 1.471 20 47.98 1.592 20.612 47.98 1.471 21.13 47.98 1.126 21.477 47.98 0.609 21.599 47.98 0 21.477 47.98 -0.609 21.13 47.98 -1.126 20.612 47.98 -1.471 20.612 49.78 1.471 21.13 49.78 1.126 12 47.98 -2.4 11.082 47.98 -2.218 10.304 47.98 -1.701 9.785 47.98 -0.926 9.602 47.98 -0.012 9.785 47.98 0.902 10.304 47.98 1.677 11.082 47.98 2.194 12 47.98 2.376 12.918 47.98 2.194 13.696 47.98 1.677 14.215 47.98 0.902 14.398 47.98 -0.012 14.215 47.98 -0.926 13.696 47.98 -1.701 12.918 47.98 -2.218 11.082 49.78 -2.218 9.785 49.78 -0.926 9.602 49.78 -0.012 9.785 49.78 0.902 10.304 49.78 1.677 13.696 49.78 1.677 14.215 49.78 -0.926 12 47.98 -1.604 11.388 47.98 -1.483 10.87 47.98 -1.138 10.523 47.98 -0.621 10.401 47.98 -0.012 10.523 47.98 0.597 10.87 47.98 1.114 11.388 47.98 1.459 12 47.98 1.58 12.612 47.98 1.459 13.13 47.98 1.114 13.477 47.98 0.597 13.599 47.98 -0.012 13.477 47.98 -0.621 13.13 47.98 -1.138 12.612 47.98 -1.483 11.388 49.78 -1.483 10.401 49.78 -0.012 10.523 49.78 0.597 11.388 49.78 1.459 12.612 49.78 1.459 13.13 49.78 1.114 13.477 49.78 0.597 13.477 49.78 -0.621 13.13 49.78 -1.138 12.612 49.78 -1.483 4 47.98 -2.388 3.082 47.98 -2.206 2.304 47.98 -1.689 1.785 47.98 -0.914 1.602 47.98 0 1.785 47.98 0.914 2.304 47.98 1.689 3.082 47.98 2.206 4 47.98 2.388 4.918 47.98 2.206 5.696 47.98 1.689 6.215 47.98 0.914 6.398 47.98 0 6.215 47.98 -0.914 5.696 47.98 -1.689 4.918 47.98 -2.206 4 49.78 -2.388 3.082 49.78 -2.206 2.304 49.78 -1.689 1.785 49.78 0.914 2.304 49.78 1.689 4 49.78 2.388 6.215 49.78 0.914 6.398 49.78 0 6.215 49.78 -0.914 4.918 49.78 -2.206 4 47.98 -1.592 3.388 47.98 -1.471 2.87 47.98 -1.126 2.523 47.98 -0.609 2.401 47.98 0 2.523 47.98 0.609 2.87 47.98 1.126 3.388 47.98 1.471 4 47.98 1.592 4.612 47.98 1.471 5.13 47.98 1.126 5.477 47.98 0.609 5.599 47.98 0 5.477 47.98 -0.609 5.13 47.98 -1.126 4.612 47.98 -1.471 3.388 49.78 -1.471 2.523 49.78 0.609 2.87 49.78 1.126 4 49.78 1.592 5.13 49.78 1.126 5.477 49.78 0.609 5.477 49.78 -0.609 5.13 49.78 -1.126 4.612 49.78 -1.471 -4 47.98 -2.388 -4.918 47.98 -2.206 -5.696 47.98 -1.689 -6.215 47.98 -0.914 -6.398 47.98 0 -6.215 47.98 0.914 -5.696 47.98 1.689 -4.918 47.98 2.206 -4 47.98 2.388 -3.082 47.98 2.206 -2.304 47.98 1.689 -1.785 47.98 0.914 -1.602 47.98 0 -1.785 47.98 -0.914 -2.304 47.98 -1.689 -3.082 47.98 -2.206 -6.215 49.78 -0.914 -4.918 49.78 2.206 -3.082 49.78 2.206 -1.785 49.78 0.914 -1.602 49.78 0 -2.304 49.78 -1.689 -3.082 49.78 -2.206 -4 47.98 -1.592 -4.612 47.98 -1.471 -5.13 47.98 -1.126 -5.477 47.98 -0.609 -5.599 47.98 0 -5.477 47.98 0.609 -5.13 47.98 1.126 -4.612 47.98 1.471 -4 47.98 1.592 -3.388 47.98 1.471 -2.87 47.98 1.126 -2.523 47.98 0.609 -2.401 47.98 0 -2.523 47.98 -0.609 -2.87 47.98 -1.126 -3.388 47.98 -1.471 -5.13 49.78 -1.126 -3.388 49.78 1.471 -2.523 49.78 -0.609 -2.87 49.78 -1.126 -12 47.98 -2.388 -12.918 47.98 -2.206 -13.696 47.98 -1.689 -14.215 47.98 -0.914 -14.398 47.98 0 -14.215 47.98 0.914 -13.696 47.98 1.689 -12.918 47.98 2.206 -12 47.98 2.388 -11.082 47.98 2.206 -10.304 47.98 1.689 -9.785 47.98 0.914 -9.602 47.98 0 -9.785 47.98 -0.914 -10.304 47.98 -1.689 -11.082 47.98 -2.206 -12 49.78 -2.388 -12.918 49.78 -2.206 -12 49.78 2.388 -11.082 49.78 2.206 -9.602 49.78 0 -9.785 49.78 -0.914 -10.304 49.78 -1.689 -11.082 49.78 -2.206 -12 47.98 -1.592 -12.612 47.98 -1.471 -13.13 47.98 -1.126 -13.477 47.98 -0.609 -13.599 47.98 0 -13.477 47.98 0.609 -13.13 47.98 1.126 -12.612 47.98 1.471 -12 47.98 1.592 -11.388 47.98 1.471 -10.87 47.98 1.126 -10.523 47.98 0.609 -10.401 47.98 0 -10.523 47.98 -0.609 -10.87 47.98 -1.126 -11.388 47.98 -1.471 -12.612 49.78 -1.471 -13.13 49.78 -1.126 -13.477 49.78 -0.609 -13.477 49.78 0.609 -12.612 49.78 1.471 -11.388 49.78 1.471 -10.523 49.78 -0.609 -20 47.98 -2.388 -20.918 47.98 -2.206 -21.696 47.98 -1.689 -22.215 47.98 -0.914 -22.398 47.98 0 -22.215 47.98 0.914 -21.696 47.98 1.689 -20.918 47.98 2.206 -20 47.98 2.388 -19.082 47.98 2.206 -18.304 47.98 1.689 -17.785 47.98 0.914 -17.602 47.98 0 -17.785 47.98 -0.914 -18.304 47.98 -1.689 -19.082 47.98 -2.206 -20.918 49.78 -2.206 -22.215 49.78 -0.914 -22.398 49.78 0 -22.215 49.78 0.914 -21.696 49.78 1.689 -19.082 49.78 2.206 -17.602 49.78 0 -19.082 49.78 -2.206 -20 47.98 -1.592 -20.612 47.98 -1.471 -21.13 47.98 -1.126 -21.477 47.98 -0.609 -21.599 47.98 0 -21.477 47.98 0.609 -21.13 47.98 1.126 -20.612 47.98 1.471 -20 47.98 1.592 -19.388 47.98 1.471 -18.87 47.98 1.126 -18.523 47.98 0.609 -18.401 47.98 0 -18.523 47.98 -0.609 -18.87 47.98 -1.126 -19.388 47.98 -1.471 -20 49.78 -1.592 -20.612 49.78 -1.471 -21.13 49.78 -1.126 -21.13 49.78 1.126 -19.388 49.78 1.471 -18.87 49.78 1.126 -18.523 49.78 0.609 -18.401 49.78 0 -18.523 49.78 -0.609 -19.388 49.78 -1.471 -8.4 0.02 2.376 -8.4 0.02 -2.4 -8.4 46.8 2.376 -9.6 46.8 -2.4 -8.4 46.8 -2.4 9.6 0.02 2.376 8.4 0.02 -2.4 9.6 0.02 -2.4 8.4 46.8 -2.4 9.6 46.8 -2.4 23.96 0.02 3.96 22.381 46.8 -2.4 17.602 49.78 0 20 49.78 2.388 21.696 49.78 1.689 22.215 49.78 0.914 22.398 49.78 0 22.215 49.78 -0.914 19.388 49.78 -1.471 20 49.78 -1.592 18.87 49.78 -1.126 18.523 49.78 -0.609 18.401 49.78 0 18.523 49.78 0.609 18.87 49.78 1.126 19.388 49.78 1.471 20 49.78 1.592 21.477 49.78 0.609 21.599 49.78 0 21.477 49.78 -0.609 21.13 49.78 -1.126 20.612 49.78 -1.471 12 49.78 -2.4 10.304 49.78 -1.701 11.082 49.78 2.194 12 49.78 2.376 12.918 49.78 2.194 14.215 49.78 0.902 14.398 49.78 -0.012 13.696 49.78 -1.701 12.918 49.78 -2.218 12 49.78 -1.604 10.87 49.78 -1.138 10.523 49.78 -0.621 10.87 49.78 1.114 12 49.78 1.58 13.599 49.78 -0.012 1.785 49.78 -0.914 1.602 49.78 0 3.082 49.78 2.206 4.918 49.78 2.206 5.696 49.78 1.689 5.696 49.78 -1.689 4 49.78 -1.592 2.87 49.78 -1.126 2.523 49.78 -0.609 2.401 49.78 0 3.388 49.78 1.471 4.612 49.78 1.471 5.599 49.78 0 -4.918 49.78 -2.206 -4 49.78 -2.388 -5.696 49.78 -1.689 -6.398 49.78 0 -6.215 49.78 0.914 -5.696 49.78 1.689 -4 49.78 2.388 -2.304 49.78 1.689 -1.785 49.78 -0.914 -4.612 49.78 -1.471 -4 49.78 -1.592 -5.477 49.78 -0.609 -5.599 49.78 0 -5.477 49.78 0.609 -5.13 49.78 1.126 -4.612 49.78 1.471 -4 49.78 1.592 -2.87 49.78 1.126 -2.523 49.78 0.609 -2.401 49.78 0 -3.388 49.78 -1.471 -13.696 49.78 -1.689 -14.215 49.78 -0.914 -14.398 49.78 0 -14.215 49.78 0.914 -13.696 49.78 1.689 -12.918 49.78 2.206 -10.304 49.78 1.689 -9.785 49.78 0.914 -12 49.78 -1.592 -13.599 49.78 0 -13.13 49.78 1.126 -12 49.78 1.592 -10.87 49.78 1.126 -10.523 49.78 0.609 -10.401 49.78 0 -10.87 49.78 -1.126 -11.388 49.78 -1.471 -20 49.78 -2.388 -21.696 49.78 -1.689 -20.918 49.78 2.206 -20 49.78 2.388 -18.304 49.78 1.689 -17.785 49.78 0.914 -17.785 49.78 -0.914 -18.304 49.78 -1.689 -21.477 49.78 -0.609 -21.599 49.78 0 -21.477 49.78 0.609 -20.612 49.78 1.471 -20 49.78 1.592 -18.87 49.78 -1.126 -9.6 0.02 -2.4 -9.6 0.02 2.376 -9.6 46.8 2.376 8.4 0.02 2.376 8.4 46.8 2.376 9.6 46.8 2.376 -22.381 0.02 -2.4 22.381 0.02 -2.4 23.96 0.02 -3.96 -23.96 0.02 -3.96 22.381 0.02 2.376 -22.381 0.02 2.376 -23.96 0.02 3.96 -22.381 46.8 -2.4 22.381 46.8 2.376 -22.381 46.8 2.376 23.96 47.98 -3.96 -23.96 47.98 -3.96 -23.96 47.98 3.96 23.96 47.98 3.96 22.215 49.78 0.914 21.696 49.78 1.689 22.398 49.78 0 22.215 49.78 -0.914 19.388 49.78 -1.471 20 49.78 -1.592 18.87 49.78 -1.126 18.523 49.78 -0.609 18.401 49.78 0 18.523 49.78 0.609 18.87 49.78 1.126 19.388 49.78 1.471 20 49.78 1.592 21.599 49.78 0 21.477 49.78 0.609 21.477 49.78 -0.609 21.13 49.78 -1.126 20.612 49.78 -1.471 12 49.78 2.376 11.082 49.78 2.194 12.918 49.78 2.194 14.398 49.78 -0.012 14.215 49.78 0.902 12.918 49.78 -2.218 13.696 49.78 -1.701 12 49.78 -2.4 10.523 49.78 -0.621 10.87 49.78 -1.138 1.602 49.78 0 1.785 49.78 -0.914 5.696 49.78 1.689 4.918 49.78 2.206 2.523 49.78 -0.609 2.87 49.78 -1.126 2.401 49.78 0 -4.918 49.78 -2.206 -4 49.78 -2.388 -5.696 49.78 -1.689 -6.215 49.78 0.914 -6.398 49.78 0 -5.696 49.78 1.689 -4.612 49.78 -1.471 -4 49.78 -1.592 -5.599 49.78 0 -5.477 49.78 -0.609 -5.477 49.78 0.609 -5.13 49.78 1.126 -4.612 49.78 1.471 -4 49.78 1.592 -2.523 49.78 0.609 -2.87 49.78 1.126 -2.401 49.78 0 -3.388 49.78 -1.471 -14.215 49.78 -0.914 -13.696 49.78 -1.689 -14.398 49.78 0 -14.215 49.78 0.914 -13.696 49.78 1.689 -12.918 49.78 2.206 -9.785 49.78 0.914 -10.304 49.78 1.689 -10.523 49.78 0.609 -10.87 49.78 1.126 -10.401 49.78 0 -11.388 49.78 -1.471 -10.87 49.78 -1.126 -12 49.78 -1.592 -20 49.78 2.388 -20.918 49.78 2.206 -17.785 49.78 0.914 -18.304 49.78 1.689 -18.304 49.78 -1.689 -17.785 49.78 -0.914 -21.599 49.78 0 -21.477 49.78 -0.609 -21.477 49.78 0.609 -20 49.78 1.592 -20.612 49.78 1.471 -9.6 46.8 2.376 -9.6 46.8 2.376 -9.6 0.02 2.376 -9.6 0.02 2.376 8.4 46.8 2.376 8.4 46.8 2.376 8.4 0.02 2.376 8.4 0.02 2.376 -22.381 0.02 2.376 -22.381 0.02 2.376 -22.381 46.8 2.376 -22.381 46.8 2.376 22.381 46.8 2.376 22.381 46.8 2.376 22.381 0.02 2.376 22.381 0.02 2.376 -23.96 47.98 -3.96 -23.96 47.98 -3.96 -23.96 47.98 3.96 -23.96 47.98 3.96 23.96 47.98 3.96 23.96 47.98 3.96 19.082 49.78 -2.206 20 49.78 -2.388 18.304 49.78 -1.689 20.918 49.78 -2.206 17.785 49.78 -0.914 18.304 49.78 1.689 17.785 49.78 0.914 19.082 49.78 2.206 21.696 49.78 -1.689 21.13 49.78 1.126 20.612 49.78 1.471 9.602 49.78 -0.012 9.785 49.78 -0.926 9.785 49.78 0.902 10.304 49.78 1.677 10.523 49.78 0.597 10.401 49.78 -0.012 13.13 49.78 1.114 12.612 49.78 1.459 13.477 49.78 0.597 13.13 49.78 -1.138 13.477 49.78 -0.621 12.612 49.78 -1.483 3.082 49.78 -2.206 4 49.78 -2.388 2.304 49.78 -1.689 4.918 49.78 -2.206 2.304 49.78 1.689 1.785 49.78 0.914 6.398 49.78 0 6.215 49.78 0.914 6.215 49.78 -0.914 2.87 49.78 1.126 2.523 49.78 0.609 5.477 49.78 0.609 5.13 49.78 1.126 5.13 49.78 -1.126 5.477 49.78 -0.609 4.612 49.78 -1.471 -1.602 49.78 0 -1.785 49.78 0.914 -3.082 49.78 -2.206 -2.304 49.78 -1.689 -2.87 49.78 -1.126 -2.523 49.78 -0.609 -12.918 49.78 -2.206 -12 49.78 -2.388 -11.082 49.78 -2.206 -11.082 49.78 2.206 -12 49.78 2.388 -9.785 49.78 -0.914 -9.602 49.78 0 -10.304 49.78 -1.689 -13.13 49.78 -1.126 -12.612 49.78 -1.471 -13.477 49.78 -0.609 -22.398 49.78 0 -22.215 49.78 -0.914 -22.215 49.78 0.914 -21.696 49.78 1.689 -20.612 49.78 -1.471 -20 49.78 -1.592 -21.13 49.78 -1.126 -19.388 49.78 -1.471 -18.87 49.78 1.126 -19.388 49.78 1.471 -18.523 49.78 0.609 -18.401 49.78 0 -18.523 49.78 -0.609 -9.6 0.02 -2.4 -9.6 0.02 -2.4 -8.4 0.02 2.376 -8.4 0.02 2.376 -8.4 46.8 2.376 -8.4 46.8 2.376 -8.4 46.8 -2.4 -8.4 46.8 -2.4 -8.4 0.02 -2.4 -8.4 0.02 -2.4 8.4 0.02 -2.4 8.4 0.02 -2.4 8.4 46.8 -2.4 8.4 46.8 -2.4 9.6 46.8 -2.4 9.6 46.8 -2.4 9.6 0.02 -2.4 9.6 0.02 -2.4 17.602 49.78 0 20 49.78 2.388 20.918 49.78 2.206 11.082 49.78 -2.218 10.304 49.78 -1.701 13.696 49.78 1.677 14.215 49.78 -0.926 11.388 49.78 -1.483 12 49.78 -1.604 10.87 49.78 1.114 11.388 49.78 1.459 12 49.78 1.58 13.599 49.78 -0.012 3.082 49.78 2.206 4 49.78 2.388 5.696 49.78 -1.689 3.388 49.78 -1.471 4 49.78 -1.592 3.388 49.78 1.471 4 49.78 1.592 4.612 49.78 1.471 5.599 49.78 0 -6.215 49.78 -0.914 -4.918 49.78 2.206 -4 49.78 2.388 -3.082 49.78 2.206 -2.304 49.78 1.689 -1.785 49.78 -0.914 -5.13 49.78 -1.126 -3.388 49.78 1.471 -13.599 49.78 0 -13.477 49.78 0.609 -13.13 49.78 1.126 -12.612 49.78 1.471 -12 49.78 1.592 -11.388 49.78 1.471 -10.523 49.78 -0.609 -20.918 49.78 -2.206 -20 49.78 -2.388 -21.696 49.78 -1.689 -19.082 49.78 2.206 -17.602 49.78 0 -19.082 49.78 -2.206 -21.13 49.78 1.126 -18.87 49.78 -1.126 -9.6 46.8 -2.4 -9.6 46.8 -2.4 9.6 0.02 2.376 9.6 0.02 2.376 9.6 46.8 2.376 9.6 46.8 2.376 23.96 0.02 -3.96 23.96 0.02 -3.96 -23.96 0.02 -3.96 -23.96 0.02 -3.96 22.381 0.02 -2.4 22.381 0.02 -2.4 -22.381 0.02 -2.4 -22.381 0.02 -2.4 -23.96 0.02 3.96 -23.96 0.02 3.96 23.96 0.02 3.96 23.96 0.02 3.96 22.381 46.8 -2.4 22.381 46.8 -2.4 -22.381 46.8 -2.4 -22.381 46.8 -2.4 23.96 47.98 -3.96 23.96 47.98 -3.96</float_array>
					<technique_common>
						<accessor source="#94C91F62-D3FA-43D7-B119-6980B1314E3F-mesh-positions-array" count="672" stride="3">
							<param name="X" type="float"/>
							<param name="Y" type="float"/>
							<param name="Z" type="float"/>
						</accessor>
					</technique_common>
				</source>
				<vertices id="94C91F62-D3FA-43D7-B119-6980B1314E3F-mesh-vertices">
					<input semantic="POSITION" source="#94C91F62-D3FA-43D7-B119-6980B1314E3F-mesh-positions"/>
				</vertices>
				<triangles material="MB|5-material" count="636">
					<input semantic="VERTEX" source="#94C91F62-D3FA-43D7-B119-6980B1314E3F-mesh-vertices" offset="0"/>
					<p>10 417 9 417 23 9 3 520 2 520 518 2 11 416 10 416 417 10 4 603 3 603 520 3 12 418 11 418 416 11 5 522 4 522 603 4 13 419 12 419 418 12 6 521 5 521 522 5 14 524 13 524 419 13 7 523 6 523 521 6 15 519 14 519 524 14 8 604 7 604 523 7 517 0 516 0 1 516 0 517 15 517 519 15 9 23 8 23 604 8 2 518 1 518 516 1 29 28 423 28 422 423 37 36 430 36 525 430 30 29 424 29 423 424 38 37 429 37 430 429 31 30 425 30 424 425 39 38 431 38 429 431 32 31 426 31 425 426 40 39 432 39 431 432 33 32 427 32 426 427 41 40 433 40 432 433 34 33 428 33 427 428 27 26 420 26 421 420 26 41 421 41 433 421 35 34 42 34 428 42 28 27 422 27 420 422 36 35 525 35 42 525 297 605 310 605 526 310 605 298 526 298 43 526 298 299 43 299 311 43 299 300 311 300 312 311 300 301 312 301 313 312 301 24 313 24 314 313 24 25 314 25 315 314 25 16 315 16 303 315 16 17 303 17 302 303 17 18 302 18 304 302 18 19 304 19 305 304 19 296 305 296 306 305 296 20 306 20 307 306 20 21 307 21 308 307 21 22 308 22 309 308 22 297 309 297 310 309 54 65 53 65 436 53 47 528 46 528 607 46 55 438 54 438 65 54 48 62 47 62 528 47 56 437 55 437 438 55 49 63 48 63 62 48 57 66 56 66 437 56 50 530 49 530 63 49 58 440 57 440 66 57 51 435 50 435 530 50 59 439 58 439 440 58 52 434 51 434 435 51 45 60 44 60 441 44 44 441 59 441 439 59 53 436 52 436 434 52 46 607 45 607 60 45 70 69 442 69 443 442 78 77 535 77 88 535 71 70 84 70 442 84 79 78 615 78 535 615 72 71 85 71 84 85 80 79 90 79 615 90 73 72 612 72 85 612 81 80 536 80 90 536 74 73 613 73 612 613 82 81 538 81 536 538 75 74 614 74 613 614 68 67 83 67 611 83 67 82 611 82 538 611 76 75 534 75 614 534 69 68 443 68 83 443 77 76 88 76 534 88 319 320 329 320 87 329 320 608 87 608 533 87 608 321 533 321 89 533 321 322 89 322 330 89 322 609 330 609 537 330 609 323 537 323 91 537 323 324 91 324 92 91 324 316 92 316 325 92 316 606 325 606 610 325 606 317 610 317 326 610 317 61 326 61 327 326 61 527 327 527 532 327 527 529 532 529 531 532 529 64 531 64 328 531 64 318 328 318 86 328 318 319 86 319 329 86 103 446 102 446 447 102 96 445 95 445 541 95 104 115 103 115 446 103 97 444 96 444 445 96 105 545 104 545 115 104 98 112 97 112 444 97 106 117 105 117 545 105 99 113 98 113 112 98 107 618 106 618 117 106 100 616 99 616 113 99 108 118 107 118 618 107 101 114 100 114 616 100 94 110 93 110 540 93 93 540 108 540 118 108 102 447 101 447 114 101 95 541 94 541 110 94 122 121 448 121 449 448 130 129 140 129 551 140 123 122 450 122 448 450 131 130 624 130 140 624 124 123 136 123 450 136 132 131 141 131 624 141 125 124 137 124 136 137 133 132 552 132 141 552 126 125 621 125 137 621 134 133 143 133 552 143 127 126 138 126 621 138 120 119 135 119 620 135 119 134 620 134 143 620 128 127 623 127 138 623 121 120 449 120 135 449 129 128 551 128 623 551 617 334 622 334 342 622 334 335 342 335 139 342 335 546 139 546 550 139 546 116 550 116 343 550 116 547 343 547 553 343 547 336 553 336 142 553 336 542 142 542 554 142 542 109 554 109 337 554 109 539 337 539 619 337 539 111 619 111 338 619 111 331 338 331 339 338 331 332 339 332 340 339 332 544 340 544 549 340 544 543 549 543 548 549 543 333 548 333 341 548 333 617 341 617 622 341 154 629 153 629 162 153 147 625 146 625 453 146 155 556 154 556 629 154 148 455 147 455 625 147 156 555 155 555 556 155 149 454 148 454 455 148 157 630 156 630 555 156 150 456 149 456 454 149 158 165 157 165 630 157 151 626 150 626 456 150 159 557 158 557 165 158 152 627 151 627 626 151 145 451 144 451 452 144 144 452 159 452 557 159 153 162 152 162 627 152 146 453 145 453 451 145 170 169 460 169 631 460 178 177 465 177 466 465 171 170 459 170 460 459 179 178 467 178 465 467 172 171 461 171 459 461 180 179 560 179 467 560 173 172 462 172 461 462 181 180 186 180 560 186 174 173 463 173 462 463 182 181 468 181 186 468 175 174 464 174 463 464 168 167 457 167 458 457 167 182 458 182 468 458 176 175 184 175 464 184 169 168 631 168 457 631 177 176 466 176 184 466 350 628 360 628 632 360 628 351 632 351 361 632 351 163 361 163 362 361 163 164 362 164 363 362 164 352 363 352 185 363 352 558 185 558 559 185 558 166 559 166 364 559 166 345 364 345 354 364 345 344 354 344 353 354 344 346 353 346 183 353 346 160 183 160 355 183 160 347 355 347 356 355 347 348 356 348 357 356 348 349 357 349 358 357 349 161 358 161 359 358 161 350 359 350 360 359 197 476 196 476 206 196 190 469 189 469 470 189 198 475 197 475 476 197 191 471 190 471 469 190 199 567 198 567 475 198 192 472 191 472 471 191 200 208 199 208 567 199 193 473 192 473 472 192 201 568 200 568 208 200 194 474 193 474 473 193 202 563 201 563 568 201 195 565 194 565 474 194 188 204 187 204 562 187 187 562 202 562 563 202 196 206 195 206 565 195 189 470 188 470 204 188 214 213 571 213 569 571 222 221 477 221 478 477 215 214 633 214 571 633 223 222 479 222 477 479 216 215 634 215 633 634 224 223 233 223 479 233 217 216 635 216 634 635 225 224 481 224 233 481 218 217 636 217 635 636 226 225 480 225 481 480 219 218 637 218 636 637 212 211 227 211 482 227 211 226 482 226 480 482 220 219 232 219 637 232 213 212 569 212 227 569 221 220 478 220 232 478 205 564 376 564 638 376 564 371 638 371 377 638 371 372 377 372 378 377 372 207 378 207 379 378 207 566 379 566 639 379 566 209 639 209 380 639 209 210 380 210 381 380 210 203 381 203 373 381 203 561 373 561 570 373 561 365 570 365 228 570 365 366 228 366 229 228 366 367 229 367 374 229 367 368 374 368 230 374 368 369 230 369 375 230 369 370 375 370 231 375 370 205 231 205 376 231 244 486 243 486 255 243 237 573 236 573 642 236 245 485 244 485 486 244 238 572 237 572 573 237 246 256 245 256 485 245 239 574 238 574 572 238 247 488 246 488 256 246 240 254 239 254 574 239 248 487 247 487 488 247 241 484 240 484 254 240 249 257 248 257 487 248 242 483 241 483 484 241 235 250 234 250 641 234 234 641 249 641 257 249 243 255 242 255 483 242 236 642 235 642 250 235 261 260 490 260 578 490 269 268 582 268 580 582 262 261 489 261 490 489 270 269 281 269 582 281 263 262 491 262 489 491 271 270 584 270 281 584 264 263 277 263 491 277 272 271 647 271 584 647 265 264 493 264 277 493 273 272 283 272 647 283 266 265 492 265 493 492 259 258 275 258 577 275 258 273 577 273 283 577 267 266 278 266 492 278 260 259 578 259 275 578 268 267 580 267 278 580 385 643 394 643 581 394 643 386 581 386 279 581 386 387 279 387 280 279 387 644 280 644 583 280 644 388 583 388 282 583 388 389 282 389 395 282 389 645 395 645 579 395 645 382 579 382 274 579 382 640 274 640 576 274 640 383 576 383 276 576 383 251 276 251 390 276 251 252 390 252 391 390 252 253 391 253 392 391 253 575 392 575 646 392 575 384 646 384 393 646 384 385 393 385 394 393 497 585 588 585 594 588 664 501 650 593 591 587 591 589 587 496 494 586 494 648 586 662 497 588 662 588 501 501 595 650 595 601 650 664 650 509 602 599 651 599 652 651 500 498 596 498 597 596 658 601 654 664 662 501 662 656 503 656 660 503 654 664 658 664 509 658 662 503 497 506 508 653 508 289 653 507 401 666 401 600 666 499 399 590 399 284 590 659 406 667 406 410 667 502 661 504 661 668 504 655 657 670 657 511 670 671 510 514 510 512 514 665 404 515 404 412 515 405 663 413 663 513 413 408 294 414 294 415 414 505 495 407 495 397 407 402 396 669 396 649 669 592 285 598 285 290 598 295 293 403 293 291 403 400 286 292 286 288 292 409 287 411 287 398 411 601 595 654 656 594 585 595 656 654 660 656 585 656 595 594</p>
				</triangles>
			</mesh>
		</geometry>
	</library_geometries>
	<library_visual_scenes>
		<visual_scene id="Scene" name="Scene">
			<node id="Part_0" name="Part.0" type="NODE">
				<matrix sid="transform">1 0 0 -48 0 1 0 0 0 0 1 0 0 0 0 1</matrix>
				<instance_geometry url="#5B10C9C5-1A6F-4332-8979-F85EFC60969C-mesh">
					<bind_material>
						<technique_common>
							<instance_material symbol="MB|5-material" target="#MB|5-material"/>
						</technique_common>
					</bind_material>
				</instance_geometry>
			</node>
			<node id="Part_1" name="Part.1" type="NODE">
				<matrix sid="transform">1 0 0 0 0 1 0 0 0 0 1 0 0 0 0 1</matrix>
				<instance_geometry url="#5F5A67DE-F600-48F4-AD46-BDE5F5937065-mesh">
					<bind_material>
						<technique_common>
							<instance_material symbol="MB|5-material" target="#MB|5-material"/>
						</technique_common>
					</bind_material>
				</instance_geometry>
			</node>
			<node id="Part_2" name="Part.2" type="NODE">
				<matrix sid="transform">1 0 0 48 0 1 0 0 0 0 1 0 0 0 0 1</matrix>
				<instance_geometry url="#94C91F62-D3FA-43D7-B119-6980B1314E3F-mesh">
					<bind_material>
						<technique_common>
							<instance_material symbol="MB|5-material" target="#MB|5-material"/>
						</technique_common>
					</bind_material>
				</instance_geometry>
			</node>
		</visual_scene>
	</library_visual_scenes>
	<scene>
		<instance_visual_scene url="#Scene"/>
	</scene>
</COLLADA>